<svg width="512" height="512" viewBox="0 0 512 512" fill="none" xmlns="http://www.w3.org/2000/svg">
<path d="M124.797 386.787V386.789C122.589 391.167 121.686 395.874 122.087 400.897L122.089 400.909C122.617 405.913 124.549 410.342 127.879 414.186C131.077 418.053 135.066 420.834 139.837 422.524L139.846 422.527L139.853 422.529C144.721 424.061 149.559 424.188 154.355 422.902L510.527 327.467C508.39 346.251 503.926 363.948 497.136 380.559C487.226 404.798 473.463 425.733 455.846 443.362C438.229 460.991 417.308 474.764 393.084 484.681C369.081 494.377 342.875 499.225 314.467 499.225H198.193C169.786 499.225 143.47 494.377 119.246 484.681C95.0226 474.764 74.1024 460.991 56.4854 443.362C38.8682 425.733 24.9941 404.799 14.8643 380.559C4.9547 356.319 2.22039e-05 329.765 0 300.897V230.46L236.464 167.101L124.797 386.787ZM307.509 139.01L195.731 359.545L195.73 359.546L307.509 139.009V139.01ZM314.467 12C342.875 12 369.081 16.9586 393.084 26.875C417.308 36.7914 438.229 50.5633 455.846 68.1924C473.463 85.6011 487.226 106.537 497.136 130.997C507.045 155.237 512 181.681 512 210.328V274.311L196.636 358.812L307.924 139.239C310.297 134.944 311.218 130.289 310.69 125.289V125.287C310.147 120.332 308.425 115.936 305.521 112.111L305.235 111.743L305.228 111.734L304.925 111.374C301.775 107.694 297.839 105.109 293.128 103.623C288.345 101.929 283.546 101.723 278.744 103.01L2.37109 177.062C4.74806 160.912 8.91195 145.557 14.8643 130.997C24.9942 106.537 38.8681 85.6011 56.4854 68.1924C74.1024 50.5635 95.0228 36.7913 119.246 26.875C143.47 16.9586 169.786 12 198.193 12H314.467ZM304.509 111.619C304.627 111.757 304.746 111.895 304.862 112.036V112.037C304.746 111.896 304.628 111.757 304.509 111.619ZM304.263 111.336C304.324 111.405 304.384 111.476 304.445 111.546C304.359 111.447 304.273 111.349 304.186 111.252C304.211 111.28 304.237 111.307 304.263 111.336ZM303.742 110.769C303.81 110.841 303.877 110.913 303.944 110.986C303.877 110.913 303.81 110.841 303.742 110.769ZM301.675 108.807L302.015 109.1C301.902 109.001 301.788 108.903 301.674 108.807L301.329 108.521C301.445 108.615 301.56 108.71 301.675 108.807Z" fill="white"/>
</svg>
