<svg width="512" height="112" viewBox="0 0 512 112" fill="none" xmlns="http://www.w3.org/2000/svg">
<path d="M197.961 61.5123C197.961 64.8496 197.388 67.9195 196.242 70.7218C195.095 73.5241 193.503 75.9444 191.465 77.9824C189.427 80.0205 187.007 81.6127 184.204 82.7591C181.427 83.8801 178.396 84.4405 175.109 84.4405H161.658C158.372 84.4405 155.327 83.8801 152.525 82.7591C149.723 81.6127 147.303 80.0205 145.265 77.9824C143.226 75.9444 141.621 73.5241 140.45 70.7218C139.303 67.9195 138.73 64.8496 138.73 61.5123V51.0417C138.73 47.7299 139.303 44.6728 140.45 41.8704C141.621 39.0426 143.226 36.6224 145.265 34.6098C147.303 32.5717 149.723 30.9795 152.525 29.8331C155.327 28.6867 158.372 28.1135 161.658 28.1135H175.109C178.396 28.1135 181.427 28.6867 184.204 29.8331C187.007 30.9795 189.427 32.5717 191.465 34.6098C193.503 36.6224 195.095 39.0426 196.242 41.8704C197.388 44.6728 197.961 47.7299 197.961 51.0417V61.5123ZM188.026 51.0417C188.026 49.0801 187.707 47.3095 187.07 45.73C186.459 44.125 185.58 42.7621 184.434 41.6411C183.313 40.4947 181.95 39.6158 180.345 39.0044C178.765 38.3675 177.02 38.049 175.109 38.049H161.658C159.722 38.049 157.952 38.3675 156.347 39.0044C154.767 39.6158 153.404 40.4947 152.258 41.6411C151.111 42.7621 150.22 44.125 149.583 45.73C148.971 47.3095 148.666 49.0801 148.666 51.0417V61.5123C148.666 63.4739 148.971 65.2572 149.583 66.8622C150.22 68.4417 151.111 69.8047 152.258 70.9511C153.404 72.072 154.767 72.9509 156.347 73.5878C157.952 74.1993 159.722 74.505 161.658 74.505H175.033C176.969 74.505 178.727 74.1993 180.307 73.5878C181.912 72.9509 183.287 72.072 184.434 70.9511C185.58 69.8047 186.459 68.4417 187.07 66.8622C187.707 65.2572 188.026 63.4739 188.026 61.5123V51.0417ZM262.39 51.806C262.39 54.0733 262.109 56.0987 261.549 57.882C260.989 59.6653 260.224 61.2448 259.256 62.6205C258.314 63.9707 257.218 65.1299 255.97 66.0979C254.721 67.066 253.409 67.8558 252.034 68.4672C250.684 69.0786 249.308 69.5244 247.907 69.8047C246.531 70.0849 245.232 70.225 244.009 70.225H221.539V60.2894H244.009C245.283 60.1875 246.429 59.9328 247.448 59.5252C248.493 59.0921 249.384 58.5189 250.123 57.8056C250.862 57.0922 251.435 56.2388 251.843 55.2452C252.25 54.2262 252.454 53.0798 252.454 51.806V47.2968C252.327 46.0485 252.059 44.902 251.652 43.8575C251.244 42.813 250.684 41.9214 249.97 41.1826C249.282 40.4438 248.442 39.8706 247.448 39.4629C246.455 39.0299 245.308 38.8133 244.009 38.8133H221.616C220.291 38.8133 219.285 39.1572 218.597 39.8451C217.909 40.5329 217.565 41.5265 217.565 42.8258V83.6763H207.629V42.8258C207.629 40.2782 208.088 38.1127 209.005 36.3294C209.948 34.5461 211.107 33.1067 212.483 32.0113C213.884 30.9158 215.4 30.1261 217.03 29.642C218.66 29.1325 220.163 28.8777 221.539 28.8777H244.009C246.251 28.8777 248.263 29.1707 250.047 29.7567C251.83 30.3171 253.397 31.0814 254.747 32.0495C256.123 32.9921 257.282 34.0875 258.224 35.3359C259.192 36.5842 259.982 37.8962 260.594 39.2719C261.231 40.6221 261.689 41.9978 261.969 43.399C262.25 44.7747 262.39 46.0739 262.39 47.2968V51.806ZM315.965 61.283H284.592V51.271H315.965V61.283ZM320.436 83.6763H284.592C283.216 83.6763 281.713 83.4342 280.083 82.9502C278.452 82.4662 276.936 81.6764 275.535 80.581C274.16 79.46 273 78.0206 272.058 76.2628C271.141 74.4795 270.682 72.3013 270.682 69.7282V33.8837C270.682 33.1959 270.809 32.5463 271.064 31.9348C271.319 31.3234 271.663 30.7884 272.096 30.3299C272.555 29.8713 273.09 29.5146 273.701 29.2599C274.312 29.0051 274.975 28.8777 275.688 28.8777H320.436V38.8133H280.618V69.7282C280.618 71.0275 280.962 72.0211 281.649 72.7089C282.337 73.3968 283.344 73.7407 284.668 73.7407H320.436V83.6763ZM384.827 47.2968C384.827 49.5641 384.546 51.5894 383.986 53.3728C383.425 55.1561 382.661 56.7356 381.693 58.1113C380.75 59.4615 379.655 60.6206 378.407 61.5887C377.158 62.5568 375.846 63.3593 374.471 63.9962C373.12 64.6076 371.745 65.0534 370.344 65.3337C368.968 65.6139 367.669 65.754 366.446 65.754L387.196 83.6763H371.834L351.122 65.754H343.976V55.8184H366.446C367.694 55.7165 368.828 55.4618 369.847 55.0542C370.891 54.6211 371.783 54.0479 372.522 53.3345C373.286 52.6212 373.872 51.7678 374.28 50.7742C374.687 49.7552 374.891 48.596 374.891 47.2968V41.0297C374.891 40.4692 374.815 40.0489 374.662 39.7687C374.534 39.4629 374.356 39.2464 374.127 39.119C373.923 38.9662 373.694 38.877 373.439 38.8515C373.21 38.8261 372.993 38.8133 372.789 38.8133H340.002V83.6763H330.066V33.8837C330.066 33.1959 330.194 32.5463 330.448 31.9348C330.703 31.3234 331.047 30.7884 331.48 30.3299C331.939 29.8713 332.474 29.5146 333.085 29.2599C333.697 29.0051 334.359 28.8777 335.072 28.8777H372.789C375.006 28.8777 376.878 29.2854 378.407 30.1006C379.935 30.8903 381.171 31.8966 382.113 33.1195C383.081 34.3168 383.769 35.6161 384.177 37.0173C384.61 38.4184 384.827 39.7304 384.827 40.9533V47.2968ZM452.312 61.5123C452.312 64.8496 451.739 67.9195 450.592 70.7218C449.446 73.5241 447.854 75.9444 445.816 77.9824C443.778 80.0205 441.357 81.6127 438.555 82.7591C435.778 83.8801 432.747 84.4405 429.46 84.4405H416.009C412.723 84.4405 409.678 83.8801 406.876 82.7591C404.074 81.6127 401.653 80.0205 399.615 77.9824C397.577 75.9444 395.972 73.5241 394.8 70.7218C393.654 67.9195 393.081 64.8496 393.081 61.5123V51.0417C393.081 47.7299 393.654 44.6728 394.8 41.8704C395.972 39.0426 397.577 36.6224 399.615 34.6098C401.653 32.5717 404.074 30.9795 406.876 29.8331C409.678 28.6867 412.723 28.1135 416.009 28.1135H429.46C432.747 28.1135 435.778 28.6867 438.555 29.8331C441.357 30.9795 443.778 32.5717 445.816 34.6098C447.854 36.6224 449.446 39.0426 450.592 41.8704C451.739 44.6728 452.312 47.7299 452.312 51.0417V61.5123ZM442.377 51.0417C442.377 49.0801 442.058 47.3095 441.421 45.73C440.81 44.125 439.931 42.7621 438.784 41.6411C437.663 40.4947 436.301 39.6158 434.696 39.0044C433.116 38.3675 431.371 38.049 429.46 38.049H416.009C414.073 38.049 412.302 38.3675 410.697 39.0044C409.118 39.6158 407.755 40.4947 406.608 41.6411C405.462 42.7621 404.57 44.125 403.933 45.73C403.322 47.3095 403.016 49.0801 403.016 51.0417V61.5123C403.016 63.4739 403.322 65.2572 403.933 66.8622C404.57 68.4417 405.462 69.8047 406.608 70.9511C407.755 72.072 409.118 72.9509 410.697 73.5878C412.302 74.1993 414.073 74.505 416.009 74.505H429.384C431.32 74.505 433.078 74.1993 434.657 73.5878C436.262 72.9509 437.638 72.072 438.784 70.9511C439.931 69.8047 440.81 68.4417 441.421 66.8622C442.058 65.2572 442.377 63.4739 442.377 61.5123V51.0417ZM508.41 31.8584C508.792 32.7501 508.907 33.6927 508.754 34.6862C508.601 35.6543 508.193 36.4823 507.531 37.1701L474.744 73.7407H508.333V83.6763H463.547C462.579 83.6763 461.674 83.4088 460.834 82.8738C460.019 82.3133 459.407 81.5873 458.999 80.6956C458.566 79.8039 458.426 78.8741 458.579 77.906C458.757 76.9379 459.165 76.0972 459.802 75.3839L492.666 38.8133H458.999V28.8777H503.862C504.831 28.8777 505.722 29.158 506.537 29.7184C507.378 30.2534 508.002 30.9668 508.41 31.8584Z" fill="white"/>
<path d="M26.6865 85.0801L26.6836 85.0859C26.0341 86.389 25.7724 87.7923 25.8877 89.2539L25.8916 89.3008C26.0474 90.7938 26.624 92.1337 27.5918 93.2764V93.2773C28.5191 94.4123 29.6889 95.2366 31.0693 95.7314L31.1016 95.7432L31.1338 95.7529C32.5484 96.2033 33.9903 96.2466 35.416 95.8604L115.386 74.1846C114.84 77.7847 113.916 81.2049 112.606 84.4443C110.362 89.9983 107.244 94.7957 103.254 98.835C99.2635 102.874 94.5249 106.03 89.0381 108.302C83.6011 110.523 77.665 111.634 71.2305 111.634H44.8926C38.4582 111.634 32.4975 110.523 27.0107 108.302C21.5239 106.03 16.7844 102.874 12.7939 98.835C8.80344 94.7957 5.66075 89.9983 3.36621 84.4443C1.12169 78.8906 0 72.8064 0 66.1924V51.8896L50.2012 38.2842L26.6865 85.0801ZM31.71 93.957C31.8376 93.9977 31.9654 94.0336 32.0928 94.0654C31.9654 94.0336 31.8376 93.9986 31.71 93.958C31.5771 93.9104 31.4467 93.859 31.3193 93.8037C31.4467 93.859 31.5771 93.9094 31.71 93.957ZM71.2305 0C77.665 4.06265e-05 83.6011 1.13619 89.0381 3.4082C94.5249 5.68025 99.2635 8.83587 103.254 12.875C107.244 16.8637 110.362 21.6603 112.606 27.2646C114.851 32.8186 115.974 38.8777 115.974 45.4414V58.2646L47.8926 76.7168L71.3311 29.9395L71.3301 29.9385C72.0228 28.6425 72.2892 27.2332 72.1357 25.7627V25.7559C71.9748 24.2702 71.444 22.9214 70.5381 21.7568L70.5244 21.7393L70.5098 21.7217C69.625 20.6388 68.5106 19.856 67.2012 19.3887L66.9375 19.2998C65.5435 18.8135 64.1085 18.7535 62.6836 19.1396L0.856445 35.8955C1.41756 32.8946 2.25364 30.0175 3.36621 27.2646C5.66073 21.6603 8.8035 16.8637 12.7939 12.875C16.7845 8.83579 21.5238 5.68026 27.0107 3.4082C32.4975 1.13625 38.4581 2.56665e-05 44.8926 0H71.2305Z" fill="white"/>
</svg>
