<svg width="510" height="111" viewBox="0 0 510 111" fill="none" xmlns="http://www.w3.org/2000/svg">
<path d="M197.6 60.5737C197.6 63.892 197.03 66.9443 195.89 69.7306C194.75 72.5169 193.167 74.9233 191.141 76.9498C189.114 78.9762 186.708 80.5593 183.921 81.6992C181.16 82.8137 178.146 83.371 174.878 83.371H161.504C158.236 83.371 155.209 82.8137 152.423 81.6992C149.637 80.5593 147.23 78.9762 145.204 76.9498C143.178 74.9233 141.582 72.5169 140.417 69.7306C139.277 66.9443 138.707 63.892 138.707 60.5737V50.1629C138.707 46.87 139.277 43.8303 140.417 41.044C141.582 38.2323 143.178 35.8259 145.204 33.8248C147.23 31.7984 149.637 30.2153 152.423 29.0754C155.209 27.9355 158.236 27.3656 161.504 27.3656H174.878C178.146 27.3656 181.16 27.9355 183.921 29.0754C186.708 30.2153 189.114 31.7984 191.141 33.8248C193.167 35.8259 194.75 38.2323 195.89 41.044C197.03 43.8303 197.6 46.87 197.6 50.1629V60.5737ZM187.721 50.1629C187.721 48.2125 187.404 46.452 186.771 44.8815C186.163 43.2857 185.289 41.9305 184.149 40.816C183.035 39.6761 181.68 38.8022 180.084 38.1943C178.513 37.5611 176.778 37.2444 174.878 37.2444H161.504C159.579 37.2444 157.819 37.5611 156.223 38.1943C154.652 38.8022 153.297 39.6761 152.157 40.816C151.017 41.9305 150.131 43.2857 149.497 44.8815C148.89 46.452 148.586 48.2125 148.586 50.1629V60.5737C148.586 62.5241 148.89 64.2972 149.497 65.8931C150.131 67.4635 151.017 68.8187 152.157 69.9586C153.297 71.0731 154.652 71.947 156.223 72.5803C157.819 73.1882 159.579 73.4922 161.504 73.4922H174.803C176.728 73.4922 178.475 73.1882 180.046 72.5803C181.642 71.947 183.01 71.0731 184.149 69.9586C185.289 68.8187 186.163 67.4635 186.771 65.8931C187.404 64.2972 187.721 62.5241 187.721 60.5737V50.1629ZM261.66 50.9228C261.66 53.1772 261.382 55.191 260.824 56.9641C260.267 58.7372 259.507 60.3077 258.545 61.6755C257.607 63.0181 256.518 64.1706 255.277 65.1331C254.036 66.0957 252.731 66.8809 251.363 67.4889C250.021 68.0968 248.653 68.5401 247.26 68.8187C245.892 69.0973 244.6 69.2367 243.384 69.2367H221.043V59.3578H243.384C244.651 59.2565 245.791 59.0032 246.804 58.5979C247.843 58.1673 248.729 57.5974 249.464 56.8881C250.198 56.1789 250.768 55.3303 251.174 54.3424C251.579 53.3292 251.781 52.1893 251.781 50.9228V46.4393C251.655 45.1982 251.389 44.0583 250.984 43.0197C250.578 41.9812 250.021 41.0946 249.312 40.3601C248.628 39.6255 247.792 39.0555 246.804 38.6503C245.816 38.2196 244.676 38.0043 243.384 38.0043H221.119C219.802 38.0043 218.801 38.3463 218.117 39.0302C217.433 39.7141 217.092 40.702 217.092 41.9939V82.6111H207.213V41.9939C207.213 39.4608 207.669 37.3077 208.581 35.5346C209.518 33.7615 210.67 32.3303 212.038 31.2411C213.431 30.1519 214.938 29.3667 216.56 28.8854C218.181 28.3788 219.675 28.1255 221.043 28.1255H243.384C245.614 28.1255 247.615 28.4168 249.388 28.9994C251.161 29.5567 252.719 30.3166 254.061 31.2791C255.429 32.2163 256.582 33.3056 257.519 34.5467C258.481 35.7879 259.267 37.0924 259.874 38.4603C260.508 39.8028 260.964 41.1706 261.242 42.5638C261.521 43.9316 261.66 45.2235 261.66 46.4393V50.9228ZM314.93 60.3457H283.736V50.3909H314.93V60.3457ZM319.375 82.6111H283.736C282.368 82.6111 280.873 82.3704 279.252 81.8892C277.631 81.4079 276.124 80.6227 274.731 79.5334C273.363 78.4189 272.21 76.9877 271.273 75.24C270.361 73.4668 269.905 71.3011 269.905 68.7427V33.1029C269.905 32.419 270.032 31.7731 270.285 31.1651C270.539 30.5572 270.881 30.0253 271.311 29.5693C271.767 29.1134 272.299 28.7588 272.907 28.5055C273.515 28.2521 274.173 28.1255 274.883 28.1255H319.375V38.0043H279.784V68.7427C279.784 70.0346 280.126 71.0224 280.81 71.7064C281.494 72.3903 282.495 72.7322 283.812 72.7322H319.375V82.6111ZM383.398 46.4393C383.398 48.6937 383.119 50.7075 382.562 52.4806C382.005 54.2538 381.245 55.8242 380.282 57.1921C379.345 58.5346 378.256 59.6871 377.015 60.6497C375.774 61.6122 374.469 62.4101 373.101 63.0434C371.759 63.6513 370.391 64.0946 368.998 64.3732C367.63 64.6519 366.338 64.7912 365.122 64.7912L385.754 82.6111H370.479L349.886 64.7912H342.781V54.9123H365.122C366.363 54.811 367.49 54.5577 368.504 54.1524C369.542 53.7218 370.429 53.1519 371.163 52.4426C371.923 51.7334 372.506 50.8848 372.911 49.8969C373.316 48.8837 373.519 47.7312 373.519 46.4393V40.2081C373.519 39.6508 373.443 39.2329 373.291 38.9542C373.164 38.6503 372.987 38.4349 372.759 38.3083C372.557 38.1563 372.329 38.0677 372.075 38.0423C371.847 38.017 371.632 38.0043 371.429 38.0043H338.829V82.6111H328.95V33.1029C328.95 32.419 329.077 31.7731 329.33 31.1651C329.584 30.5572 329.926 30.0253 330.356 29.5693C330.812 29.1134 331.344 28.7588 331.952 28.5055C332.56 28.2521 333.219 28.1255 333.928 28.1255H371.429C373.633 28.1255 375.495 28.5308 377.015 29.3414C378.535 30.1266 379.763 31.1271 380.7 32.343C381.663 33.5335 382.347 34.8254 382.752 36.2185C383.183 37.6117 383.398 38.9162 383.398 40.1321V46.4393ZM450.498 60.5737C450.498 63.892 449.928 66.9443 448.788 69.7306C447.648 72.5169 446.065 74.9233 444.039 76.9498C442.012 78.9762 439.606 80.5593 436.82 81.6992C434.059 82.8137 431.044 83.371 427.777 83.371H414.402C411.135 83.371 408.108 82.8137 405.321 81.6992C402.535 80.5593 400.129 78.9762 398.102 76.9498C396.076 74.9233 394.48 72.5169 393.315 69.7306C392.175 66.9443 391.605 63.892 391.605 60.5737V50.1629C391.605 46.87 392.175 43.8303 393.315 41.044C394.48 38.2323 396.076 35.8259 398.102 33.8248C400.129 31.7984 402.535 30.2153 405.321 29.0754C408.108 27.9355 411.135 27.3656 414.402 27.3656H427.777C431.044 27.3656 434.059 27.9355 436.82 29.0754C439.606 30.2153 442.012 31.7984 444.039 33.8248C446.065 35.8259 447.648 38.2323 448.788 41.044C449.928 43.8303 450.498 46.87 450.498 50.1629V60.5737ZM440.619 50.1629C440.619 48.2125 440.303 46.452 439.669 44.8815C439.061 43.2857 438.188 41.9305 437.048 40.816C435.933 39.6761 434.578 38.8022 432.982 38.1943C431.412 37.5611 429.677 37.2444 427.777 37.2444H414.402C412.477 37.2444 410.717 37.5611 409.121 38.1943C407.55 38.8022 406.195 39.6761 405.055 40.816C403.916 41.9305 403.029 43.2857 402.396 44.8815C401.788 46.452 401.484 48.2125 401.484 50.1629V60.5737C401.484 62.5241 401.788 64.2972 402.396 65.8931C403.029 67.4635 403.916 68.8187 405.055 69.9586C406.195 71.0731 407.55 71.947 409.121 72.5803C410.717 73.1882 412.477 73.4922 414.402 73.4922H427.701C429.626 73.4922 431.374 73.1882 432.944 72.5803C434.54 71.947 435.908 71.0731 437.048 69.9586C438.188 68.8187 439.061 67.4635 439.669 65.8931C440.303 64.2972 440.619 62.5241 440.619 60.5737V50.1629ZM506.276 31.0891C506.655 31.9757 506.769 32.9129 506.617 33.9008C506.465 34.8634 506.06 35.6866 505.402 36.3705L472.801 72.7322H506.2V82.6111H461.669C460.706 82.6111 459.807 82.3451 458.971 81.8132C458.16 81.2559 457.553 80.534 457.147 79.6474C456.717 78.7609 456.577 77.8363 456.729 76.8738C456.907 75.9112 457.312 75.0753 457.945 74.3661L490.621 38.0043H457.147V28.1255H501.754C502.717 28.1255 503.603 28.4041 504.414 28.9614C505.25 29.4933 505.87 30.2026 506.276 31.0891Z" fill="#1E1E1E"/>
<path d="M26.6963 84.0947L26.6934 84.1006C26.0434 85.3897 25.7808 86.7804 25.8965 88.2305L25.8975 88.2539L25.9014 88.2773C26.0594 89.7734 26.6455 91.1142 27.6328 92.2539C28.5581 93.362 29.7193 94.1665 31.085 94.6504L31.1172 94.6621L31.1484 94.6719C32.5609 95.1164 33.9988 95.1578 35.4189 94.7773L115.384 73.3496C114.838 76.9053 113.915 80.2837 112.606 83.4834C110.362 88.974 107.244 93.7158 103.254 97.709C99.2634 101.702 94.5249 104.822 89.0381 107.068C83.6011 109.265 77.665 110.362 71.2305 110.362H44.8926C38.4581 110.362 32.4975 109.264 27.0107 107.068C21.5238 104.822 16.7845 101.702 12.7939 97.709C8.80351 93.7158 5.66073 88.974 3.36621 83.4834C1.12155 77.9927 0 71.9774 0 65.4385V51.3076L50.1992 37.8574L26.6963 84.0947ZM34.9355 92.9707C34.8024 93.0064 34.6686 93.0366 34.5352 93.0625C34.4117 93.0865 34.2878 93.1045 34.1641 93.1201C34.4213 93.0877 34.6783 93.0393 34.9346 92.9707H34.9355ZM32.1064 92.9971C32.0929 92.9938 32.079 92.9917 32.0654 92.9883L31.71 92.8877C31.8421 92.9293 31.9745 92.9648 32.1064 92.9971ZM29.0469 91.0293C29.136 91.1371 29.2277 91.2416 29.3223 91.3418C29.2278 91.2417 29.1359 91.138 29.0469 91.0303C29.0376 91.0195 29.0287 91.0079 29.0195 90.9971C29.0287 91.0078 29.0376 91.0186 29.0469 91.0293ZM71.2305 0C77.665 4.11474e-05 83.6011 1.123 89.0381 3.36914C94.5249 5.61532 99.2635 8.73535 103.254 12.7285C107.244 16.6718 110.362 21.4136 112.606 26.9541C114.851 32.4448 115.974 38.4349 115.974 44.9238V57.5908L47.8975 75.832L71.3223 29.6143C72.0154 28.3325 72.282 26.935 72.1279 25.4756L72.127 25.4688C71.9654 23.995 71.4327 22.6573 70.5244 21.5029L70.5107 21.4854L70.4961 21.4678L70.3164 21.2568C69.4136 20.2396 68.2909 19.5156 66.9844 19.0928L66.9854 19.0918C65.5739 18.5918 64.1226 18.5264 62.6826 18.9121L0.858398 35.4775C1.41951 32.5141 2.25478 29.6728 3.36621 26.9541C5.66072 21.4136 8.80351 16.6718 12.7939 12.7285C16.7845 8.7353 21.5238 5.61532 27.0107 3.36914C32.4975 1.1231 38.4581 2.43901e-05 44.8926 0H71.2305Z" fill="#1E1E1E"/>
</svg>
