<svg width="512" height="512" viewBox="0 0 512 512" fill="none" xmlns="http://www.w3.org/2000/svg">
<path d="M124.797 386.802V386.804C122.589 391.182 121.686 395.888 122.087 400.912L122.089 400.924C122.617 405.924 124.547 410.351 127.873 414.192V414.193C131.072 418.065 135.063 420.848 139.837 422.539L139.853 422.545C144.721 424.077 149.56 424.203 154.356 422.918L510.526 327.479C508.389 346.263 503.926 363.961 497.136 380.571C487.226 404.812 473.463 425.747 455.846 443.377C438.228 461.007 417.308 474.78 393.084 484.696C369.081 494.393 342.875 499.241 314.468 499.241H198.193C169.786 499.241 143.47 494.393 119.246 484.696C95.0227 474.78 74.1024 461.006 56.4854 443.377C38.8682 425.747 24.9942 404.812 14.8643 380.571C4.95463 356.331 5.16286e-05 329.776 0 300.907V230.469L236.465 167.106L124.797 386.802ZM125.221 387.017L125.22 387.018L237.369 166.374L0 229.978L237.37 166.373L125.221 387.017ZM314.468 12C342.875 12.0001 369.081 16.9584 393.084 26.875C417.308 36.7917 438.229 50.5647 455.846 68.1943C473.463 85.6037 487.226 106.54 497.136 131.001C507.045 155.242 512 181.686 512 210.334V274.321L196.635 358.825L307.924 139.244C310.297 134.949 311.219 130.294 310.691 125.294L310.69 125.292C310.13 120.177 308.311 115.659 305.234 111.749L304.862 112.042L305.235 111.748L305.229 111.739L304.926 111.38C301.776 107.699 297.839 105.114 293.128 103.628C288.345 101.934 283.546 101.728 278.744 103.015L2.37012 177.07C4.74703 160.919 8.91165 145.562 14.8643 131.001C24.9942 106.54 38.8681 85.6037 56.4854 68.1943C74.1024 50.5648 95.0227 36.7917 119.246 26.875C143.47 16.9583 169.786 12 198.193 12H314.468ZM297.613 106.036C297.745 106.108 297.876 106.181 298.007 106.255H298.006C297.854 106.169 297.701 106.084 297.547 106.001C297.569 106.013 297.591 106.024 297.613 106.036ZM297.084 105.758C297.199 105.817 297.312 105.876 297.426 105.937C297.312 105.876 297.198 105.817 297.084 105.758ZM296.608 105.52C296.722 105.575 296.834 105.63 296.946 105.687C296.834 105.63 296.722 105.575 296.608 105.52ZM295.992 105.229C296.148 105.3 296.302 105.372 296.455 105.445C296.302 105.372 296.148 105.3 295.992 105.229ZM278.867 103.473L279.309 103.358C279.398 103.336 279.488 103.316 279.578 103.295C279.341 103.351 279.104 103.409 278.867 103.473Z" fill="#1E1E1E"/>
</svg>
