<svg width="181" height="39" viewBox="0 0 181 39" fill="none" xmlns="http://www.w3.org/2000/svg">
<path d="M69.6457 21.2111C69.6457 22.3804 69.4448 23.4561 69.0431 24.438C68.6415 25.4199 68.0836 26.2679 67.3694 26.982C66.6553 27.6961 65.8073 28.254 64.8254 28.6557C63.8524 29.0485 62.7902 29.2448 61.6387 29.2448H56.9255C55.774 29.2448 54.7073 29.0485 53.7254 28.6557C52.7435 28.254 51.8955 27.6961 51.1814 26.982C50.4673 26.2679 49.9049 25.4199 49.4943 24.438C49.0926 23.4561 48.8918 22.3804 48.8918 21.2111V17.5423C48.8918 16.3819 49.0926 15.3107 49.4943 14.3288C49.9049 13.338 50.4673 12.49 51.1814 11.7848C51.8955 11.0707 52.7435 10.5128 53.7254 10.1111C54.7073 9.70938 55.774 9.50853 56.9255 9.50853H61.6387C62.7902 9.50853 63.8524 9.70938 64.8254 10.1111C65.8073 10.5128 66.6553 11.0707 67.3694 11.7848C68.0836 12.49 68.6415 13.338 69.0431 14.3288C69.4448 15.3107 69.6457 16.3819 69.6457 17.5423V21.2111ZM66.1644 17.5423C66.1644 16.855 66.0528 16.2346 65.8296 15.6812C65.6154 15.1188 65.3074 14.6412 64.9058 14.2485C64.513 13.8468 64.0354 13.5388 63.4731 13.3246C62.9196 13.1014 62.3082 12.9898 61.6387 12.9898H56.9255C56.2471 12.9898 55.6267 13.1014 55.0644 13.3246C54.5109 13.5388 54.0334 13.8468 53.6317 14.2485C53.23 14.6412 52.9176 15.1188 52.6944 15.6812C52.4802 16.2346 52.3731 16.855 52.3731 17.5423V21.2111C52.3731 21.8984 52.4802 22.5233 52.6944 23.0856C52.9176 23.6391 53.23 24.1166 53.6317 24.5183C54.0334 24.9111 54.5109 25.219 55.0644 25.4422C55.6267 25.6564 56.2471 25.7635 56.9255 25.7635H61.6119C62.2903 25.7635 62.9062 25.6564 63.4597 25.4422C64.022 25.219 64.5041 24.9111 64.9058 24.5183C65.3074 24.1166 65.6154 23.6391 65.8296 23.0856C66.0528 22.5233 66.1644 21.8984 66.1644 21.2111V17.5423ZM92.2206 17.8101C92.2206 18.6046 92.1224 19.3142 91.926 19.9391C91.7296 20.5639 91.4618 21.1173 91.1226 21.5994C90.7924 22.0725 90.4085 22.4786 89.9711 22.8178C89.5337 23.157 89.074 23.4337 88.592 23.648C88.1189 23.8622 87.6369 24.0184 87.1459 24.1166C86.6639 24.2148 86.2086 24.2639 85.7802 24.2639H77.9071V20.7826H85.7802C86.2265 20.7469 86.6282 20.6576 86.9852 20.5148C87.3512 20.3631 87.6637 20.1622 87.9225 19.9123C88.1814 19.6623 88.3822 19.3633 88.5251 19.0152C88.6679 18.6581 88.7393 18.2564 88.7393 17.8101V16.2301C88.6947 15.7927 88.6009 15.391 88.4581 15.0251C88.3153 14.6591 88.1189 14.3467 87.869 14.0878C87.6279 13.8289 87.3334 13.6281 86.9852 13.4853C86.6371 13.3335 86.2354 13.2576 85.7802 13.2576H77.9339C77.4697 13.2576 77.1171 13.3781 76.8761 13.6191C76.6351 13.8602 76.5146 14.2083 76.5146 14.6635V28.9771H73.0333V14.6635C73.0333 13.7709 73.1939 13.0122 73.5153 12.3873C73.8456 11.7625 74.2517 11.2581 74.7337 10.8743C75.2247 10.4904 75.7558 10.2137 76.3271 10.0441C76.8984 9.86559 77.4251 9.77633 77.9071 9.77633H85.7802C86.5657 9.77633 87.2709 9.87898 87.8957 10.0843C88.5206 10.2807 89.0696 10.5485 89.5427 10.8877C90.0247 11.2179 90.4308 11.6018 90.7611 12.0392C91.1003 12.4766 91.377 12.9363 91.5913 13.4183C91.8144 13.8914 91.9751 14.3734 92.0733 14.8644C92.1715 15.3464 92.2206 15.8017 92.2206 16.2301V17.8101ZM110.993 21.1307H100V17.6226H110.993V21.1307ZM112.559 28.9771H100C99.5179 28.9771 98.9913 28.8922 98.42 28.7226C97.8487 28.553 97.3176 28.2763 96.8266 27.8925C96.3446 27.4997 95.9384 26.9954 95.6082 26.3795C95.2868 25.7546 95.1261 24.9914 95.1261 24.0898V11.5304C95.1261 11.2894 95.1708 11.0617 95.26 10.8475C95.3493 10.6333 95.4698 10.4458 95.6216 10.2851C95.7822 10.1245 95.9697 9.99949 96.1839 9.91022C96.3982 9.82096 96.6302 9.77633 96.8802 9.77633H112.559V13.2576H98.6074V24.0898C98.6074 24.5451 98.7279 24.8932 98.969 25.1342C99.21 25.3752 99.5626 25.4957 100.027 25.4957H112.559V28.9771ZM135.121 16.2301C135.121 17.0246 135.023 17.7342 134.826 18.3591C134.63 18.9839 134.362 19.5374 134.023 20.0194C133.693 20.4925 133.309 20.8986 132.872 21.2378C132.434 21.5771 131.974 21.8582 131.492 22.0814C131.019 22.2956 130.537 22.4518 130.046 22.55C129.564 22.6482 129.109 22.6973 128.681 22.6973L135.951 28.9771H130.568L123.311 22.6973H120.807V19.216H128.681C129.118 19.1803 129.515 19.091 129.872 18.9482C130.238 18.7965 130.551 18.5956 130.809 18.3457C131.077 18.0957 131.283 17.7967 131.425 17.4486C131.568 17.0915 131.64 16.6854 131.64 16.2301V14.0342C131.64 13.8378 131.613 13.6906 131.559 13.5924C131.515 13.4853 131.452 13.4094 131.372 13.3647C131.3 13.3112 131.22 13.2799 131.131 13.271C131.051 13.2621 130.975 13.2576 130.903 13.2576H119.415V28.9771H115.934V11.5304C115.934 11.2894 115.978 11.0617 116.068 10.8475C116.157 10.6333 116.277 10.4458 116.429 10.2851C116.59 10.1245 116.777 9.99949 116.991 9.91022C117.206 9.82096 117.438 9.77633 117.688 9.77633H130.903C131.68 9.77633 132.336 9.91915 132.872 10.2048C133.407 10.4815 133.84 10.8341 134.17 11.2626C134.509 11.6821 134.751 12.1374 134.893 12.6283C135.045 13.1193 135.121 13.579 135.121 14.0074V16.2301ZM158.767 21.2111C158.767 22.3804 158.566 23.4561 158.164 24.438C157.763 25.4199 157.205 26.2679 156.491 26.982C155.777 27.6961 154.929 28.254 153.947 28.6557C152.974 29.0485 151.912 29.2448 150.76 29.2448H146.047C144.895 29.2448 143.829 29.0485 142.847 28.6557C141.865 28.254 141.017 27.6961 140.303 26.982C139.589 26.2679 139.026 25.4199 138.616 24.438C138.214 23.4561 138.013 22.3804 138.013 21.2111V17.5423C138.013 16.3819 138.214 15.3107 138.616 14.3288C139.026 13.338 139.589 12.49 140.303 11.7848C141.017 11.0707 141.865 10.5128 142.847 10.1111C143.829 9.70938 144.895 9.50853 146.047 9.50853H150.76C151.912 9.50853 152.974 9.70938 153.947 10.1111C154.929 10.5128 155.777 11.0707 156.491 11.7848C157.205 12.49 157.763 13.338 158.164 14.3288C158.566 15.3107 158.767 16.3819 158.767 17.5423V21.2111ZM155.286 17.5423C155.286 16.855 155.174 16.2346 154.951 15.6812C154.737 15.1188 154.429 14.6412 154.027 14.2485C153.634 13.8468 153.157 13.5388 152.594 13.3246C152.041 13.1014 151.43 12.9898 150.76 12.9898H146.047C145.368 12.9898 144.748 13.1014 144.186 13.3246C143.632 13.5388 143.155 13.8468 142.753 14.2485C142.351 14.6412 142.039 15.1188 141.816 15.6812C141.602 16.2346 141.494 16.855 141.494 17.5423V21.2111C141.494 21.8984 141.602 22.5233 141.816 23.0856C142.039 23.6391 142.351 24.1166 142.753 24.5183C143.155 24.9111 143.632 25.219 144.186 25.4422C144.748 25.6564 145.368 25.7635 146.047 25.7635H150.733C151.412 25.7635 152.028 25.6564 152.581 25.4422C153.143 25.219 153.625 24.9111 154.027 24.5183C154.429 24.1166 154.737 23.6391 154.951 23.0856C155.174 22.5233 155.286 21.8984 155.286 21.2111V17.5423ZM178.423 10.8207C178.557 11.1331 178.597 11.4634 178.544 11.8115C178.49 12.1508 178.347 12.4409 178.115 12.6819L166.627 25.4957H178.396V28.9771H162.704C162.364 28.9771 162.047 28.8833 161.753 28.6959C161.467 28.4995 161.253 28.2451 161.11 27.9327C160.958 27.6202 160.909 27.2944 160.963 26.9552C161.025 26.616 161.168 26.3214 161.391 26.0715L172.906 13.2576H161.11V9.77633H176.83C177.169 9.77633 177.481 9.87452 177.767 10.0709C178.061 10.2584 178.28 10.5083 178.423 10.8207Z" fill="white"/>
<path d="M9.41016 29.6279L9.40918 29.6299C9.18012 30.084 9.08714 30.574 9.12793 31.085L9.12891 31.0928L9.12988 31.1016C9.18503 31.6232 9.389 32.0905 9.73047 32.4893V32.4902C10.0582 32.8866 10.471 33.1745 10.957 33.3467L10.9678 33.3516L10.9795 33.3545C11.4771 33.5109 11.9841 33.5255 12.4844 33.3916L40.6699 25.8428C40.4775 27.0951 40.1533 28.2851 39.6924 29.4121C38.9012 31.3464 37.802 33.017 36.3955 34.4238C34.989 35.8306 33.3187 36.9303 31.3848 37.7217C29.4683 38.4955 27.3756 38.8818 25.1074 38.8818H15.8242C13.5561 38.8818 11.4546 38.4955 9.52051 37.7217C7.58652 36.9303 5.91631 35.8306 4.50977 34.4238C3.10328 33.017 1.99527 31.3464 1.18652 29.4121C0.395381 27.4777 0 25.3583 0 23.0547V18.0771L17.6943 13.3379L9.41016 29.6279ZM18.9521 12.3193L10.1504 29.6279L18.9502 12.3193H18.9521ZM25.1074 0C27.3756 0 29.4683 0.396137 31.3848 1.1875C33.3187 1.97885 34.989 3.0776 36.3955 4.48438C37.8021 5.87362 38.9012 7.54413 39.6924 9.49609C40.4836 11.4305 40.8789 13.541 40.8789 15.8271V20.29L16.8828 26.7168L25.1289 10.4551C25.3816 9.99789 25.4789 9.49765 25.4238 8.97559L25.4229 8.97266C25.3658 8.45349 25.1786 7.98187 24.8584 7.5752L24.8535 7.56934L24.8486 7.5625L24.7188 7.41797C24.4071 7.09138 24.0265 6.85673 23.5879 6.71875V6.71973C23.159 6.57199 22.72 6.53705 22.2822 6.62012L22.0938 6.66309L0.302734 12.498C0.500517 11.4544 0.794907 10.4536 1.18652 9.49609C1.99531 7.54414 3.10321 5.87362 4.50977 4.48438C5.91627 3.0776 7.5866 1.97885 9.52051 1.1875C11.4546 0.396137 13.5561 0 15.8242 0H25.1074Z" fill="white"/>
</svg>
