<svg width="181" height="39" viewBox="0 0 181 39" fill="none" xmlns="http://www.w3.org/2000/svg">
<path d="M69.651 21.2099C69.651 22.3796 69.4501 23.4555 69.0484 24.4376C68.6466 25.4197 68.0885 26.268 67.3743 26.9822C66.66 27.6965 65.8118 28.2546 64.8296 28.6564C63.8564 29.0492 62.7939 29.2456 61.6421 29.2456H56.9278C55.776 29.2456 54.7091 29.0492 53.7269 28.6564C52.7448 28.2546 51.8966 27.6965 51.1823 26.9822C50.468 26.268 49.9055 25.4197 49.4948 24.4376C49.093 23.4555 48.8921 22.3796 48.8921 21.2099V17.5403C48.8921 16.3796 49.093 15.3081 49.4948 14.326C49.9055 13.3349 50.468 12.4867 51.1823 11.7813C51.8966 11.0671 52.7448 10.509 53.7269 10.1072C54.7091 9.70545 55.776 9.50456 56.9278 9.50456H61.6421C62.7939 9.50456 63.8564 9.70545 64.8296 10.1072C65.8118 10.509 66.66 11.0671 67.3743 11.7813C68.0885 12.4867 68.6466 13.3349 69.0484 14.326C69.4501 15.3081 69.651 16.3796 69.651 17.5403V21.2099ZM66.1689 17.5403C66.1689 16.8528 66.0573 16.2322 65.8341 15.6787C65.6198 15.1162 65.3118 14.6385 64.91 14.2456C64.5171 13.8438 64.0394 13.5358 63.4769 13.3215C62.9234 13.0983 62.3118 12.9867 61.6421 12.9867H56.9278C56.2492 12.9867 55.6287 13.0983 55.0662 13.3215C54.5126 13.5358 54.035 13.8438 53.6332 14.2456C53.2314 14.6385 52.9189 15.1162 52.6957 15.6787C52.4814 16.2322 52.3742 16.8528 52.3742 17.5403V21.2099C52.3742 21.8974 52.4814 22.5224 52.6957 23.0849C52.9189 23.6385 53.2314 24.1162 53.6332 24.518C54.035 24.9108 54.5126 25.2189 55.0662 25.4421C55.6287 25.6564 56.2492 25.7635 56.9278 25.7635H61.6153C62.2939 25.7635 62.91 25.6564 63.4635 25.4421C64.026 25.2189 64.5082 24.9108 64.91 24.518C65.3118 24.1162 65.6198 23.6385 65.8341 23.0849C66.0573 22.5224 66.1689 21.8974 66.1689 21.2099V17.5403ZM92.2314 17.8081C92.2314 18.6028 92.1332 19.3126 91.9368 19.9376C91.7403 20.5626 91.4725 21.1162 91.1332 21.5983C90.8028 22.0715 90.4189 22.4778 89.9814 22.8171C89.5439 23.1564 89.0841 23.4331 88.6019 23.6474C88.1287 23.8617 87.6466 24.018 87.1555 24.1162C86.6734 24.2144 86.218 24.2635 85.7894 24.2635H77.9144V20.7813H85.7894C86.2359 20.7456 86.6377 20.6563 86.9948 20.5135C87.3609 20.3617 87.6734 20.1608 87.9323 19.9108C88.1912 19.6608 88.3921 19.3617 88.535 19.0135C88.6778 18.6563 88.7493 18.2546 88.7493 17.8081V16.2278C88.7046 15.7903 88.6109 15.3885 88.468 15.0224C88.3252 14.6563 88.1287 14.3438 87.8787 14.0849C87.6377 13.826 87.343 13.6251 86.9948 13.4822C86.6466 13.3305 86.2448 13.2546 85.7894 13.2546H77.9412C77.4769 13.2546 77.1243 13.3751 76.8832 13.6162C76.6421 13.8572 76.5216 14.2055 76.5216 14.6608V28.9778H73.0394V14.6608C73.0394 13.768 73.2002 13.009 73.5216 12.384C73.8519 11.759 74.2582 11.2546 74.7403 10.8706C75.2314 10.4867 75.7627 10.2099 76.3341 10.0403C76.9055 9.8617 77.4323 9.77242 77.9144 9.77242H85.7894C86.5752 9.77242 87.2805 9.87509 87.9055 10.0805C88.5305 10.2769 89.0796 10.5447 89.5528 10.884C90.035 11.2144 90.4412 11.5983 90.7716 12.0358C91.1109 12.4733 91.3877 12.9331 91.6019 13.4153C91.8252 13.8885 91.9859 14.3706 92.0841 14.8617C92.1823 15.3438 92.2314 15.7992 92.2314 16.2278V17.8081ZM111.008 21.1296H100.013V17.6206H111.008V21.1296ZM112.575 28.9778H100.013C99.5305 28.9778 99.0037 28.893 98.4323 28.7233C97.8609 28.5537 97.3296 28.2769 96.8386 27.893C96.3564 27.5001 95.9502 26.9956 95.6198 26.3796C95.2984 25.7546 95.1377 24.9912 95.1377 24.0894V11.5269C95.1377 11.2858 95.1823 11.0581 95.2716 10.8438C95.3609 10.6296 95.4814 10.4421 95.6332 10.2813C95.7939 10.1206 95.9814 9.99563 96.1957 9.90634C96.41 9.81706 96.6421 9.77242 96.8921 9.77242H112.575V13.2546H98.6198V24.0894C98.6198 24.5447 98.7403 24.893 98.9814 25.134C99.2225 25.3751 99.5752 25.4956 100.039 25.4956H112.575V28.9778ZM135.142 16.2278C135.142 17.0224 135.044 17.7322 134.848 18.3572C134.651 18.9822 134.383 19.5358 134.044 20.018C133.714 20.4912 133.33 20.8974 132.892 21.2367C132.455 21.576 131.995 21.8572 131.513 22.0805C131.039 22.2947 130.557 22.451 130.066 22.5492C129.584 22.6474 129.129 22.6965 128.7 22.6965L135.973 28.9778H130.589L123.33 22.6965H120.825V19.2144H128.7C129.138 19.1787 129.535 19.0894 129.892 18.9465C130.258 18.7947 130.571 18.5938 130.83 18.3438C131.098 18.0938 131.303 17.7947 131.446 17.4465C131.589 17.0894 131.66 16.6831 131.66 16.2278V14.0313C131.66 13.8349 131.633 13.6876 131.58 13.5894C131.535 13.4822 131.473 13.4063 131.392 13.3617C131.321 13.3081 131.24 13.2769 131.151 13.268C131.071 13.259 130.995 13.2546 130.923 13.2546H119.432V28.9778H115.95V11.5269C115.95 11.2858 115.995 11.0581 116.084 10.8438C116.173 10.6296 116.294 10.4421 116.446 10.2813C116.606 10.1206 116.794 9.99563 117.008 9.90634C117.223 9.81706 117.455 9.77242 117.705 9.77242H130.923C131.7 9.77242 132.356 9.91527 132.892 10.201C133.428 10.4778 133.861 10.8305 134.191 11.259C134.531 11.6787 134.772 12.134 134.914 12.6251C135.066 13.1162 135.142 13.576 135.142 14.0046V16.2278ZM158.794 21.2099C158.794 22.3796 158.593 23.4555 158.191 24.4376C157.789 25.4197 157.231 26.268 156.517 26.9822C155.803 27.6965 154.955 28.2546 153.973 28.6564C152.999 29.0492 151.937 29.2456 150.785 29.2456H146.071C144.919 29.2456 143.852 29.0492 142.87 28.6564C141.888 28.2546 141.039 27.6965 140.325 26.9822C139.611 26.268 139.048 25.4197 138.638 24.4376C138.236 23.4555 138.035 22.3796 138.035 21.2099V17.5403C138.035 16.3796 138.236 15.3081 138.638 14.326C139.048 13.3349 139.611 12.4867 140.325 11.7813C141.039 11.0671 141.888 10.509 142.87 10.1072C143.852 9.70545 144.919 9.50456 146.071 9.50456H150.785C151.937 9.50456 152.999 9.70545 153.973 10.1072C154.955 10.509 155.803 11.0671 156.517 11.7813C157.231 12.4867 157.789 13.3349 158.191 14.326C158.593 15.3081 158.794 16.3796 158.794 17.5403V21.2099ZM155.312 17.5403C155.312 16.8528 155.2 16.2322 154.977 15.6787C154.763 15.1162 154.455 14.6385 154.053 14.2456C153.66 13.8438 153.182 13.5358 152.62 13.3215C152.066 13.0983 151.455 12.9867 150.785 12.9867H146.071C145.392 12.9867 144.772 13.0983 144.209 13.3215C143.656 13.5358 143.178 13.8438 142.776 14.2456C142.374 14.6385 142.062 15.1162 141.839 15.6787C141.624 16.2322 141.517 16.8528 141.517 17.5403V21.2099C141.517 21.8974 141.624 22.5224 141.839 23.0849C142.062 23.6385 142.374 24.1162 142.776 24.518C143.178 24.9108 143.656 25.2189 144.209 25.4421C144.772 25.6564 145.392 25.7635 146.071 25.7635H150.758C151.437 25.7635 152.053 25.6564 152.606 25.4421C153.169 25.2189 153.651 24.9108 154.053 24.518C154.455 24.1162 154.763 23.6385 154.977 23.0849C155.2 22.5224 155.312 21.8974 155.312 21.2099V17.5403ZM178.455 10.8171C178.589 11.1296 178.629 11.4599 178.575 11.8081C178.522 12.1474 178.379 12.4376 178.147 12.6787L166.656 25.4956H178.428V28.9778H162.731C162.392 28.9778 162.075 28.884 161.781 28.6965C161.495 28.5001 161.281 28.2456 161.138 27.9331C160.986 27.6206 160.937 27.2947 160.99 26.9555C161.053 26.6162 161.196 26.3215 161.419 26.0715L172.937 13.2546H161.138V9.77242H176.861C177.2 9.77242 177.513 9.87063 177.798 10.0671C178.093 10.2546 178.312 10.5046 178.455 10.8171Z" fill="#1E1E1E"/>
<path d="M9.41016 29.6426L9.40918 29.6445C9.18015 30.0988 9.08721 30.5886 9.12793 31.0996L9.12891 31.1074V31.1172C9.1841 31.639 9.38891 32.1069 9.73047 32.5059V32.5068C10.0582 32.9034 10.4719 33.1901 10.958 33.3623L10.9678 33.3672L10.9795 33.3701C11.4774 33.5268 11.9848 33.5414 12.4854 33.4072L40.6699 25.8545C40.4775 27.1078 40.1535 28.2989 39.6924 29.4268C38.9012 31.3621 37.8021 33.0339 36.3955 34.4414C34.989 35.8488 33.3187 36.9485 31.3848 37.7402C29.4683 38.5144 27.3756 38.9014 25.1074 38.9014H15.8242C13.5561 38.9014 11.4546 38.5144 9.52051 37.7402C7.58658 36.9485 5.91629 35.8488 4.50977 34.4414C3.1032 33.0339 1.99531 31.3621 1.18652 29.4268C0.395338 27.4914 2.39561e-05 25.3712 0 23.0664V18.085L17.6943 13.3438L9.41016 29.6426ZM25.1074 0C27.3756 0 29.4683 0.395754 31.3848 1.1875C33.3187 1.97922 34.989 3.07888 36.3955 4.48633C37.8021 5.87628 38.9012 7.548 39.6924 9.50098C40.4836 11.4363 40.8789 13.5477 40.8789 15.835V20.2998L16.8838 26.7295L25.1396 10.4385C25.3839 9.98679 25.478 9.49474 25.4238 8.98047L25.4229 8.97754C25.3659 8.45815 25.1785 7.98695 24.8584 7.58008L24.8535 7.57324L24.8496 7.56738L24.7197 7.42188C24.4082 7.09508 24.0275 6.85978 23.5889 6.72168L23.5879 6.72363C23.0976 6.55472 22.5945 6.53218 22.0947 6.66602L0.302734 12.5049C0.500513 11.4605 0.794826 10.4591 1.18652 9.50098C1.99532 7.548 3.10317 5.87628 4.50977 4.48633C5.9163 3.07888 7.58656 1.97922 9.52051 1.1875C11.4546 0.395754 13.5561 0 15.8242 0H25.1074ZM24.7783 9.19434C24.7781 9.18684 24.7767 9.17939 24.7764 9.17188C24.7767 9.17939 24.7781 9.18684 24.7783 9.19434Z" fill="#1E1E1E"/>
</svg>
